<svg viewBox="0 0 12 12" width="60px" height="60px" xmlns="http://www.w3.org/2000/svg"><path fill-rule="evenodd" d="M 1,0 4,0 4,1 8,1 8,0 11,0 11,1 12,1 12,10 11,10 11,12 1,12 1,10 0,10 0,1 1,1z M 7,8 7,9 5,9 5,8z" fill="#13C9BA"/><path fill-rule="evenodd" d="M 2,1 3,1 3,2 2,2z" fill="#ffffff"/><path fill-rule="evenodd" d="M 9,1 10,1 10,2 9,2z" fill="#ffffff"/><path fill-rule="evenodd" d="M 1,2 2,2 2,3 1,3z" fill="#ffffff"/><path fill-rule="evenodd" d="M 4,2 8,2 8,3 4,3z" fill="#ffffff"/><path fill-rule="evenodd" d="M 10,2 11,2 11,3 10,3z" fill="#ffffff"/><path fill-rule="evenodd" d="M 2,3 3,3 3,4 2,4z" fill="#ffffff"/><path fill-rule="evenodd" d="M 9,3 10,3 10,4 9,4z" fill="#ffffff"/><path fill-rule="evenodd" d="M 4,4 5,4 5,5 4,5z" fill="#ffffff"/><path fill-rule="evenodd" d="M 7,4 8,4 8,5 7,5z" fill="#ffffff"/><path fill-rule="evenodd" d="M 1,5 2,5 2,6 1,6z" fill="#ffffff"/><path fill-rule="evenodd" d="M 10,5 11,5 11,6 10,6z" fill="#ffffff"/><path fill-rule="evenodd" d="M 2,6 3,6 3,7 4,7 4,8 3,8 3,9 1,9 1,8 2,8z" fill="#ffffff"/><path fill-rule="evenodd" d="M 5,6 7,6 7,7 5,7z" fill="#ffffff"/><path fill-rule="evenodd" d="M 9,6 10,6 10,8 11,8 11,9 9,9 9,8 8,8 8,7 9,7z" fill="#ffffff"/><path fill-rule="evenodd" d="M 2,10 3,10 3,11 2,11z" fill="#ffffff"/><path fill-rule="evenodd" d="M 4,10 5,10 5,11 4,11z" fill="#ffffff"/><path fill-rule="evenodd" d="M 7,10 8,10 8,11 7,11z" fill="#ffffff"/><path fill-rule="evenodd" d="M 9,10 10,10 10,11 9,11z" fill="#ffffff"/></svg>